<?xml version="1.0" encoding="UTF-8"?>
<svg width="23px" height="24px" viewBox="0 0 23 24" version="1.1" xmlns="http://www.w3.org/2000/svg" xmlns:xlink="http://www.w3.org/1999/xlink">
    <!-- Generator: Sketch 51.1 (57501) - http://www.bohemiancoding.com/sketch -->
    <title>Hive Home</title>
    <desc>Created with Sketch.</desc>
    <defs>
        <path d="M171.84375,15.359375 C172.015626,15.5156258 172.109375,15.7109363 172.125,15.9453125 C172.140625,16.1796887 172.070313,16.3828116 171.914062,16.5546875 C171.757812,16.7265634 171.562501,16.8203124 171.328125,16.8359375 C171.093749,16.8515626 170.890626,16.7812508 170.71875,16.625 L162,8.234375 L153.28125,16.625 C153.109374,16.7812508 152.906251,16.8515626 152.671875,16.8359375 C152.437499,16.8203124 152.242188,16.7265634 152.085938,16.5546875 C151.929687,16.3828116 151.859375,16.1796887 151.875,15.9453125 C151.890625,15.7109363 151.984374,15.5156258 152.15625,15.359375 L160.875,6.96875 C161.187502,6.68749859 161.562498,6.546875 162,6.546875 C162.437502,6.546875 162.812498,6.68749859 163.125,6.96875 L171.84375,15.359375 Z M169.523438,18.4765625 C169.757814,18.4765625 169.95703,18.5585929 170.121094,18.7226562 C170.285157,18.8867196 170.367188,19.0859363 170.367188,19.3203125 L170.367188,25.8125 C170.367188,26.2812523 170.203127,26.6796859 169.875,27.0078125 C169.546873,27.3359391 169.14844,27.5 168.679688,27.5 L155.320312,27.5 C154.85156,27.5 154.453127,27.3359391 154.125,27.0078125 C153.796873,26.6796859 153.632812,26.2812523 153.632812,25.8125 L153.632812,19.3203125 C153.632812,19.0859363 153.714843,18.8867196 153.878906,18.7226562 C154.04297,18.5585929 154.242186,18.4765625 154.476562,18.4765625 C154.710939,18.4765625 154.910155,18.5585929 155.074219,18.7226562 C155.238282,18.8867196 155.320312,19.0859363 155.320312,19.3203125 L155.320312,25.8125 L158.671875,25.8125 L158.671875,20.1875 C158.671875,19.7187477 158.835936,19.3203141 159.164062,18.9921875 C159.492189,18.6640609 159.890623,18.5 160.359375,18.5 L163.640625,18.5 C164.109377,18.5 164.507811,18.6640609 164.835938,18.9921875 C165.164064,19.3203141 165.328125,19.7187477 165.328125,20.1875 L165.328125,25.8125 L168.679688,25.8125 L168.679688,19.3203125 C168.679688,19.0859363 168.761718,18.8867196 168.925781,18.7226562 C169.089845,18.5585929 169.289061,18.4765625 169.523438,18.4765625 Z M160.359375,20.1875 L160.359375,25.8125 L163.640625,25.8125 L163.640625,20.1875 L160.359375,20.1875 Z" id="path-1"></path>
        <filter x="-9.9%" y="-4.8%" width="119.7%" height="119.1%" filterUnits="objectBoundingBox" id="filter-2">
            <feOffset dx="0" dy="1" in="SourceAlpha" result="shadowOffsetOuter1"></feOffset>
            <feGaussianBlur stdDeviation="0.5" in="shadowOffsetOuter1" result="shadowBlurOuter1"></feGaussianBlur>
            <feColorMatrix values="0 0 0 0 0   0 0 0 0 0   0 0 0 0 0  0 0 0 0.5 0" type="matrix" in="shadowBlurOuter1"></feColorMatrix>
        </filter>
    </defs>
    <g id="News-Onsite" stroke="none" stroke-width="1" fill="none" fill-rule="evenodd">
        <g id="Landing-Page" transform="translate(-1240.000000, -33.000000)">
            <g id="Hero-Area" transform="translate(-1.000000, -1.000000)">
                <g id="Navigation-Bar">
                    <g id="Navigation-Links" transform="translate(1090.000000, 28.000000)">
                        <g id="Hive-Home">
                            <use fill="black" fill-opacity="1" filter="url(#filter-2)" xlink:href="#path-1"></use>
                            <use fill="#FFFFFF" fill-rule="evenodd" xlink:href="#path-1"></use>
                        </g>
                    </g>
                </g>
            </g>
        </g>
    </g>
</svg>