<?xml version="1.0" encoding="UTF-8"?>
<svg width="13px" height="12px" viewBox="0 0 13 12" version="1.1" xmlns="http://www.w3.org/2000/svg" xmlns:xlink="http://www.w3.org/1999/xlink">
    <!-- Generator: Sketch 51.1 (57501) - http://www.bohemiancoding.com/sketch -->
    <title>ion-social-instagram - Ionicons</title>
    <desc>Created with Sketch.</desc>
    <defs></defs>
    <g id="News-Onsite" stroke="none" stroke-width="1" fill="none" fill-rule="evenodd">
        <g id="Landing-Page" transform="translate(-1112.000000, -3538.000000)" fill="#6A6665">
            <g id="Footer" transform="translate(-1.000000, 3343.000000)">
                <g id="Row" transform="translate(103.000000, 120.000000)">
                    <g id="Col-3" transform="translate(901.000000, 0.000000)">
                        <g id="Link" transform="translate(100.000000, 66.000000)">
                            <path d="M15.0714286,17.5 C13.4047536,17.5 12.5714286,16.666675 12.5714286,15 C12.5714286,13.333325 13.4047536,12.5 15.0714286,12.5 C16.7381036,12.5 17.5714286,13.333325 17.5714286,15 C17.5714286,16.666675 16.7381036,17.5 15.0714286,17.5 Z M12.6026786,12.53125 C12.1651764,12.9687522 11.8735127,13.4583306 11.7276786,14 L9.0714286,14 L9.0714286,10.5 C9.0714286,10.0624978 9.21726047,9.70833469 9.5089286,9.4375 C9.8422636,9.14583187 10.2068433,9 10.6026786,9 L19.6026786,9 C19.9985139,9 20.3422605,9.14583187 20.6339286,9.4375 C20.9255967,9.72916813 21.0714286,10.0833313 21.0714286,10.5 L21.0714286,14 L18.4464286,14 C18.3005945,13.4583306 18.0089308,12.9687522 17.5714286,12.53125 C16.8839252,11.8437466 16.0506002,11.5 15.0714286,11.5 C14.1130905,11.5 13.290182,11.8437466 12.6026786,12.53125 Z M20.0714286,11.625 L20.0714286,10.40625 C20.0714286,10.3020828 20.0297623,10.2083338 19.9464286,10.125 C19.8630948,10.0416662 19.7693458,10 19.6651786,10 L18.4776786,10 C18.3735114,10 18.2797623,10.0416662 18.1964286,10.125 C18.1130949,10.2083338 18.0714286,10.3020828 18.0714286,10.40625 L18.0714286,11.625 C18.0714286,11.7291672 18.1130949,11.8229163 18.1964286,11.90625 C18.2589289,11.9687503 18.352678,12 18.4776786,12 L19.6651786,12 C19.7901792,12 19.8839283,11.9687503 19.9464286,11.90625 C20.0297623,11.8229163 20.0714286,11.7291672 20.0714286,11.625 Z M17.5714286,17.46875 C18.2380986,16.80208 18.5714286,15.9791716 18.5714286,15 L21.0714286,15 L21.0714286,19.5 C21.0714286,19.8750019 20.9255967,20.229165 20.6339286,20.5625 C20.3630939,20.8541681 20.0193474,21 19.6026786,21 L10.6026786,21 C10.1860098,21 9.83184673,20.8541681 9.5401786,20.5625 C9.22767704,20.2499984 9.0714286,19.8958353 9.0714286,19.5 L9.0714286,15 L11.6026786,15 C11.6026786,15.9791716 11.9360086,16.80208 12.6026786,17.46875 C13.290182,18.1562534 14.1130905,18.5 15.0714286,18.5 C16.0506002,18.5 16.8839252,18.1562534 17.5714286,17.46875 Z" id="ion-social-instagram---Ionicons"></path>
                        </g>
                    </g>
                </g>
            </g>
        </g>
    </g>
</svg>