<?xml version="1.0" encoding="UTF-8"?>
<svg width="16px" height="12px" viewBox="0 0 16 12" version="1.1" xmlns="http://www.w3.org/2000/svg" xmlns:xlink="http://www.w3.org/1999/xlink">
    <!-- Generator: Sketch 51.1 (57501) - http://www.bohemiancoding.com/sketch -->
    <title>ion-social-twitter - Ionicons</title>
    <desc>Created with Sketch.</desc>
    <defs></defs>
    <g id="News-Onsite" stroke="none" stroke-width="1" fill="none" fill-rule="evenodd">
        <g id="Landing-Page" transform="translate(-1060.000000, -3538.000000)" fill="#6A6665">
            <g id="Footer" transform="translate(-1.000000, 3343.000000)">
                <g id="Row" transform="translate(103.000000, 120.000000)">
                    <g id="Col-3" transform="translate(901.000000, 0.000000)">
                        <g id="Link" transform="translate(50.000000, 66.000000)">
                            <path d="M22.4464286,10.4375 C22.0714267,11.0208363 21.5714317,11.5416644 20.9464286,12 L20.9464286,12.375 C20.9464286,14.5625109 20.1599781,16.5468661 18.5870536,18.328125 C17.0141291,20.1093839 14.9256083,21 12.3214286,21 C10.6547536,21 9.11310235,20.5416713 7.6964286,19.625 C8.0297636,19.6666669 8.26934454,19.6875 8.4151786,19.6875 C9.81101891,19.6875 11.0610064,19.2500044 12.1651786,18.375 C11.519342,18.3541666 10.9360145,18.1510436 10.4151786,17.765625 C9.89434266,17.3802064 9.54017954,16.8854197 9.3526786,16.28125 C9.60267985,16.3229169 9.79017797,16.34375 9.9151786,16.34375 C10.123513,16.34375 10.3943436,16.3020838 10.7276786,16.21875 C10.0401752,16.0729159 9.46205594,15.7239611 8.9933036,15.171875 C8.52455126,14.6197889 8.2901786,13.9791703 8.2901786,13.25 L8.2901786,13.21875 C8.74851423,13.4687513 9.20684298,13.59375 9.6651786,13.59375 C8.76934079,13.0104137 8.3214286,12.1666722 8.3214286,11.0625 C8.3214286,10.5416641 8.45684391,10.0416691 8.7276786,9.5625 C10.3318533,11.5416766 12.4047492,12.5937494 14.9464286,12.71875 C14.9047617,12.5729159 14.8839286,12.3437516 14.8839286,12.03125 C14.8839286,11.1770791 15.1755924,10.4583363 15.7589286,9.875 C16.3422648,9.29166375 17.0610077,9 17.9151786,9 C18.7693495,9 19.4985089,9.32291344 20.1026786,9.96875 C20.7276817,9.86458281 21.3735086,9.61458531 22.0401786,9.21875 C21.8318442,9.94792031 21.383932,10.5104147 20.6964286,10.90625 C21.3422652,10.8437497 21.9255927,10.6875013 22.4464286,10.4375 Z" id="ion-social-twitter---Ionicons"></path>
                        </g>
                    </g>
                </g>
            </g>
        </g>
    </g>
</svg>