<?xml version="1.0" encoding="UTF-8"?>
<svg width="14px" height="14px" viewBox="0 0 14 14" version="1.1" xmlns="http://www.w3.org/2000/svg" xmlns:xlink="http://www.w3.org/1999/xlink">
    <!-- Generator: Sketch 51.1 (57501) - http://www.bohemiancoding.com/sketch -->
    <title>person_outline - material</title>
    <desc>Created with Sketch.</desc>
    <defs></defs>
    <g id="News-Onsite" stroke="none" stroke-width="1" fill="none" fill-rule="evenodd">
        <g id="Newsletter-Signup-Page" transform="translate(-546.000000, -343.000000)" fill="#96908A">
            <g id="Modal">
                <g id="Panel" transform="translate(435.000000, 155.000000)">
                    <g id="Form" transform="translate(98.000000, 175.000000)">
                        <g id="Form-Control">
                            <g id="Addon">
                                <path d="M20,20.82 C20.8133374,20.82 21.719995,20.9466654 22.72,21.2 C23.8400056,21.4800014 24.7466632,21.853331 25.44,22.32 C26.2666708,22.8800028 26.68,23.4999966 26.68,24.18 L26.68,26.68 L13.32,26.68 L13.32,24.18 C13.32,23.4999966 13.7333292,22.8800028 14.56,22.32 C15.2533368,21.853331 16.1599944,21.4800014 17.28,21.2 C18.280005,20.9466654 19.1866626,20.82 20,20.82 Z M20,13.32 C20.600003,13.32 21.1533308,13.4699985 21.66,13.77 C22.1666692,14.0700015 22.5699985,14.4799974 22.87,15 C23.1700015,15.5200026 23.32,16.079997 23.32,16.68 C23.32,17.280003 23.1700015,17.8333308 22.87,18.34 C22.5699985,18.8466692 22.1666692,19.2499985 21.66,19.55 C21.1533308,19.8500015 20.600003,20 20,20 C19.399997,20 18.8466692,19.8500015 18.34,19.55 C17.8333308,19.2499985 17.4300015,18.8466692 17.13,18.34 C16.8299985,17.8333308 16.68,17.280003 16.68,16.68 C16.68,16.079997 16.8299985,15.5200026 17.13,15 C17.4300015,14.4799974 17.8333308,14.0700015 18.34,13.77 C18.8466692,13.4699985 19.399997,13.32 20,13.32 Z M20,22.42 C19.2399962,22.42 18.4333376,22.5333322 17.58,22.76 C16.846663,22.960001 16.2200026,23.1999986 15.7,23.48 C15.1799974,23.7600014 14.92,23.9933324 14.92,24.18 L14.92,25.08 L25.08,25.08 L25.08,24.18 C25.08,23.9933324 24.8200026,23.7600014 24.3,23.48 C23.7799974,23.1999986 23.153337,22.960001 22.42,22.76 C21.5666624,22.5333322 20.7600038,22.42 20,22.42 Z M20,14.92 C19.5066642,14.92 19.0900017,15.0899983 18.75,15.43 C18.4099983,15.7700017 18.24,16.1866642 18.24,16.68 C18.24,17.1733358 18.4099983,17.5833317 18.75,17.91 C19.0900017,18.2366683 19.5066642,18.4 20,18.4 C20.4933358,18.4 20.9099983,18.2366683 21.25,17.91 C21.5900017,17.5833317 21.76,17.1733358 21.76,16.68 C21.76,16.1866642 21.5900017,15.7700017 21.25,15.43 C20.9099983,15.0899983 20.4933358,14.92 20,14.92 Z" id="person_outline---material"></path>
                            </g>
                        </g>
                    </g>
                </g>
            </g>
        </g>
    </g>
</svg>