<?xml version="1.0"?>
<svg xmlns="http://www.w3.org/2000/svg" width="30px" height="30px" viewBox="0 0 368 368">
    <g>
        <path fill="#6a6665" d="m184 0c-101.464844 0-184 82.542969-184 184 0 101.464844 82.535156 184 184 184s184-82.535156 184-184c0-101.457031-82.535156-184-184-184zm0 352c-92.632812 0-168-75.367188-168-168 0-92.640625 75.367188-168 168-168s168 75.359375 168 168c0 92.632812-75.367188 168-168 168zm0 0" class="active-path" data-old_color="#6a6665" data-original="#000000"/>
        <path fill="#6a6665" d="m302.191406 146.9375c-2.816406-3.425781-7.847656-3.921875-11.253906-1.128906l-32.425781 26.527344-47.679688-59.59375 42.222657-34.542969c3.425781-2.800781 3.929687-7.832031 1.136718-11.253907-2.808594-3.425781-7.839844-3.929687-11.253906-1.128906l-42.097656 34.441406-26.59375-33.242187c-2.765625-3.449219-7.789063-4.007813-11.246094-1.246094-3.449219 2.757813-4.007812 7.789063-1.246094 11.238281l26.710938 33.382813-76.585938 62.65625-33.621094-42.03125c-2.761718-3.449219-7.792968-4.015625-11.25-1.246094-3.449218 2.757813-4.007812 7.789063-1.246093 11.238281l33.734375 42.175782-32.550782 26.632812c-3.425781 2.808594-3.929687 7.839844-1.136718 11.253906 1.582031 1.929688 3.878906 2.929688 6.199218 2.929688 1.785157 0 3.566407-.59375 5.054688-1.808594l32.425781-26.527344 47.671875 59.59375-42.222656 34.542969c-3.425781 2.808594-3.929688 7.839844-1.136719 11.253907 1.589844 1.945312 3.886719 2.945312 6.207031 2.945312 1.785157 0 3.566407-.59375 5.054688-1.808594l42.097656-34.4375 26.59375 33.246094c1.582032 1.976562 3.902344 3 6.253906 3 1.753907 0 3.511719-.566406 4.992188-1.753906 3.449219-2.765625 4.007812-7.796875 1.246094-11.246094l-26.703125-33.382812 76.578125-62.65625 33.632812 42.039062c1.582032 1.976562 3.902344 3 6.253906 3 1.753907 0 3.511719-.566406 4.992188-1.753906 3.449219-2.765625 4.007812-7.796875 1.246094-11.246094l-33.742188-42.175781 32.550782-26.632813c3.433593-2.800781 3.9375-7.839844 1.136718-11.253906zm-132.640625 98.191406-47.671875-59.59375 76.578125-62.65625 47.671875 59.601563zm0 0" class="active-path" data-old_color="#6a6665" data-original="#000000"/>
    </g>
</svg>
