<?xml version="1.0" encoding="UTF-8"?>
<svg width="14px" height="13px" viewBox="0 0 14 13" version="1.1" xmlns="http://www.w3.org/2000/svg" xmlns:xlink="http://www.w3.org/1999/xlink">
    <!-- Generator: Sketch 51.1 (57501) - http://www.bohemiancoding.com/sketch -->
    <title>slack - FontAwesome</title>
    <desc>Created with Sketch.</desc>
    <defs></defs>
    <g id="News-Onsite" stroke="none" stroke-width="1" fill="none" fill-rule="evenodd">
        <g id="Landing-Page" transform="translate(-1161.000000, -3537.000000)" fill="#6A6665">
            <g id="Footer" transform="translate(-1.000000, 3343.000000)">
                <g id="Row" transform="translate(103.000000, 120.000000)">
                    <g id="Col-3" transform="translate(901.000000, 0.000000)">
                        <g id="Link" transform="translate(150.000000, 66.000000)">
                            <path d="M20.4922016,14.0624929 C21.1328274,14.0624929 21.6250155,14.5312435 21.6250155,15.1718692 C21.6250155,15.6718698 21.3672027,16.0234328 20.8984521,16.1874955 L19.5547005,16.6484335 L19.9922011,17.9531226 C20.0312636,18.0703102 20.0468886,18.1953103 20.0468886,18.3203105 C20.0468886,18.9374987 19.546888,19.4531243 18.9296998,19.4531243 C18.4375117,19.4531243 18.0000112,19.1484365 17.843761,18.6796859 L17.414073,17.3906219 L14.9921951,18.2187479 L15.4218831,19.4999994 C15.4609456,19.617187 15.4843832,19.7421872 15.4843832,19.8671873 C15.4843832,20.4765631 14.9843826,21.0000012 14.3593818,21.0000012 C13.8671937,21.0000012 13.4375057,20.6953133 13.2812556,20.2265628 L12.8515675,18.9531238 L11.6562536,19.3671867 C11.5312535,19.4062493 11.3984408,19.4374993 11.2656281,19.4374993 C10.6328149,19.4374993 10.1562518,18.9687488 10.1562518,18.3359355 C10.1562518,17.8515599 10.4687522,17.4140594 10.9296902,17.2578092 L12.1484417,16.8437462 L11.3281282,14.3984308 L10.1093768,14.8203063 C9.98437662,14.8593689 9.85937647,14.8828064 9.73437632,14.8828064 C9.10937558,14.8828064 8.625,14.4062433 8.625,13.7812426 C8.625,13.296867 8.93750037,12.8593665 9.39843842,12.7031163 L10.6250024,12.2890533 L10.2109394,11.0468643 C10.1718768,10.9296767 10.1484393,10.8046765 10.1484393,10.6796764 C10.1484393,10.0624882 10.6484399,9.54686254 11.2734407,9.54686254 C11.7656287,9.54686254 12.1953168,9.8515504 12.3515669,10.320301 L12.7734424,11.5703025 L15.1953203,10.749989 L14.7734448,9.49998748 C14.7343823,9.38279984 14.7109448,9.25779969 14.7109448,9.13279955 C14.7109448,8.51561131 15.2187579,7.99998569 15.8359461,7.99998569 C16.3281342,7.99998569 16.7656347,8.31248607 16.9218849,8.77342412 L17.3359479,10.0312381 L18.6015744,9.6015501 C18.7109495,9.57030007 18.8203247,9.55467505 18.9375123,9.55467505 C19.546888,9.55467505 20.0703261,10.0078006 20.0703261,10.6328013 C20.0703261,11.1171769 19.6953257,11.5234274 19.2578252,11.6718651 L18.0312612,12.0937406 L18.8515747,14.5624935 L20.1328262,14.124993 C20.2500139,14.0859304 20.375014,14.0624929 20.4922016,14.0624929 Z M14.2890693,16.1093704 L16.7109471,15.2890569 L15.8906337,12.8281165 L13.4687558,13.6640549 L14.2890693,16.1093704 Z" id="slack---FontAwesome"></path>
                        </g>
                    </g>
                </g>
            </g>
        </g>
    </g>
</svg>