<?xml version="1.0" encoding="UTF-8"?>
<svg width="7px" height="12px" viewBox="0 0 7 12" version="1.1" xmlns="http://www.w3.org/2000/svg" xmlns:xlink="http://www.w3.org/1999/xlink">
    <!-- Generator: Sketch 51.1 (57501) - http://www.bohemiancoding.com/sketch -->
    <title></title>
    <desc>Created with Sketch.</desc>
    <defs></defs>
    <g id="News-Onsite" stroke="none" stroke-width="1" fill="none" fill-rule="evenodd">
        <g id="Landing-Page" transform="translate(-1015.000000, -3538.000000)" fill="#6A6665">
            <g id="Footer" transform="translate(-1.000000, 3343.000000)">
                <g id="Row" transform="translate(103.000000, 120.000000)">
                    <g id="Col-3" transform="translate(901.000000, 0.000000)">
                        <g id="Link" transform="translate(0.000000, 66.000000)">
                            <path d="M16.0714286,13 L18.0714286,13 L17.8214286,15 L16.0714286,15 L16.0714286,21 L13.4776786,21 L13.4776786,15 L12.0714286,15 L12.0714286,13 L13.4776786,13 L13.4776786,11.65625 C13.4776786,10.7812456 13.6964264,10.1197939 14.1339286,9.671875 C14.5714308,9.22395609 15.3005902,9 16.3214286,9 L18.0714286,9 L18.0714286,11 L17.0089286,11 C16.6130933,11 16.3578875,11.0624994 16.2433036,11.1875 C16.1287197,11.3125006 16.0714286,11.5208319 16.0714286,11.8125 L16.0714286,13 Z" id=""></path>
                        </g>
                    </g>
                </g>
            </g>
        </g>
    </g>
</svg>