<?xml version="1.0" encoding="UTF-8"?>
<svg width="14px" height="19px" viewBox="0 0 14 19" version="1.1" xmlns="http://www.w3.org/2000/svg" xmlns:xlink="http://www.w3.org/1999/xlink">
    <!-- Generator: Sketch 52.3 (67297) - http://www.bohemiancoding.com/sketch -->
    <title>file-text - anticon</title>
    <desc>Created with Sketch.</desc>
    <g id="Symbols" stroke="none" stroke-width="1" fill="none" fill-rule="evenodd">
        <g id="News-Portal-Side-Bar" transform="translate(-32.000000, -69.000000)" fill="#6A6665">
            <g id="Side-Bar">
                <g id="App-Menu">
                    <g id="Menu-Item" transform="translate(0.000000, 54.000000)">
                        <path d="M45.3808594,20.5585938 C45.6152355,20.7929699 45.7324219,21.0859357 45.7324219,21.4375 L45.7324219,31.984375 C45.7324219,32.3359393 45.6123059,32.6347644 45.3720703,32.8808594 C45.1318347,33.1269544 44.8359393,33.25 44.484375,33.25 L33.5332031,33.25 C33.1816389,33.25 32.8798841,33.1269544 32.6279297,32.8808594 C32.3759753,32.6347644 32.25,32.3359393 32.25,31.984375 L32.25,16.515625 C32.25,16.1640607 32.3759753,15.8652356 32.6279297,15.6191406 C32.8798841,15.3730456 33.1816389,15.25 33.5332031,15.25 L39.5976562,15.25 C39.7734384,15.25 39.9433586,15.2851559 40.1074219,15.3554688 C40.1308595,15.3671876 40.1484374,15.3789062 40.1601562,15.390625 C40.1718751,15.390625 40.1953123,15.4023436 40.2304688,15.4257812 C40.3242192,15.4843753 40.412109,15.5488278 40.4941406,15.6191406 L45.3808594,20.5585938 Z M40.2480469,17.1835938 L40.2480469,20.734375 L43.78125,20.734375 L40.2480469,17.1835938 Z M44.4667969,31.984375 L44.4667969,22 L40.265625,22 C39.9140607,22 39.6123059,21.8769544 39.3603516,21.6308594 C39.1083972,21.3847644 38.9824219,21.0859393 38.9824219,20.734375 L38.9824219,16.515625 L33.515625,16.515625 L33.515625,31.984375 L44.4667969,31.984375 Z M40.0722656,24.2148438 C39.9550775,24.3320318 39.8085946,24.390625 39.6328125,24.390625 L35.1328125,24.390625 C34.9570304,24.390625 34.8076178,24.3291022 34.6845703,24.2060547 C34.5615228,24.0830072 34.5,23.9335946 34.5,23.7578125 C34.5,23.5820304 34.5615228,23.4326178 34.6845703,23.3095703 C34.8076178,23.1865228 34.9570304,23.125 35.1328125,23.125 L39.6328125,23.125 C39.8085946,23.125 39.9580072,23.1865228 40.0810547,23.3095703 C40.2041022,23.4326178 40.265625,23.5820304 40.265625,23.7578125 C40.265625,23.9335946 40.2011725,24.0859369 40.0722656,24.2148438 Z M43.4472656,27.0273438 C43.3300775,27.1445318 43.1835946,27.203125 43.0078125,27.203125 L35.1328125,27.203125 C34.9570304,27.203125 34.8076178,27.1416022 34.6845703,27.0185547 C34.5615228,26.8955072 34.5,26.7460946 34.5,26.5703125 C34.5,26.3945304 34.5615228,26.2451178 34.6845703,26.1220703 C34.8076178,25.9990228 34.9570304,25.9375 35.1328125,25.9375 L43.0078125,25.9375 C43.1835946,25.9375 43.3330072,25.9990228 43.4560547,26.1220703 C43.5791022,26.2451178 43.640625,26.3945304 43.640625,26.5703125 C43.640625,26.7460946 43.5761725,26.8984369 43.4472656,27.0273438 Z M41.1972656,29.8398438 C41.0800775,29.9570318 40.9335946,30.015625 40.7578125,30.015625 L35.1328125,30.015625 C34.9570304,30.015625 34.8076178,29.9541022 34.6845703,29.8310547 C34.5615228,29.7080072 34.5,29.5585946 34.5,29.3828125 C34.5,29.2070304 34.5615228,29.0576178 34.6845703,28.9345703 C34.8076178,28.8115228 34.9570304,28.75 35.1328125,28.75 L40.7578125,28.75 C40.9335946,28.75 41.0830072,28.8115228 41.2060547,28.9345703 C41.3291022,29.0576178 41.390625,29.2070304 41.390625,29.3828125 C41.390625,29.5585946 41.3261725,29.7109369 41.1972656,29.8398438 Z" id="file-text---anticon"></path>
                    </g>
                </g>
            </g>
        </g>
    </g>
</svg>