<?xml version="1.0" encoding="UTF-8"?>
<svg width="15px" height="15px" viewBox="0 0 15 15" version="1.1" xmlns="http://www.w3.org/2000/svg" xmlns:xlink="http://www.w3.org/1999/xlink">
    <!-- Generator: Sketch 52.3 (67297) - http://www.bohemiancoding.com/sketch -->
    <title>ion-ios-search-strong - Ionicons</title>
    <desc>Created with Sketch.</desc>
    <g id="Symbols" stroke="none" stroke-width="1" fill="none" fill-rule="evenodd" opacity="0.800000012">
        <g id="News-Portal-Header" transform="translate(-228.000000, -33.000000)" fill="#6A6665">
            <g id="Header">
                <g id="Search-Bar" transform="translate(220.000000, 20.000000)">
                    <path d="M18.9375,22.140625 L18.78125,22.4140625 L23,26.671875 L21.671875,28 L17.453125,23.7421875 L17.1796875,23.9375 C16.1380156,24.5885449 15.0572973,24.9140625 13.9375,24.9140625 C12.2968668,24.9140625 10.8971412,24.3281309 9.73828125,23.15625 C8.57942129,21.9843691 8,20.5781332 8,18.9375 C8,17.2968668 8.57942129,15.8971412 9.73828125,14.7382812 C10.8971412,13.5794213 12.2968668,13 13.9375,13 C15.5781332,13 16.9778588,13.5794213 18.1367188,14.7382812 C19.2955787,15.8971412 19.875,17.2968668 19.875,18.9375 C19.875,20.0833391 19.5625031,21.1510367 18.9375,22.140625 Z M17.2578125,15.6171875 C16.3463496,14.7057246 15.2395898,14.25 13.9375,14.25 C12.6354102,14.25 11.5286504,14.7057246 10.6171875,15.6171875 C9.70572461,16.5286504 9.25,17.6354102 9.25,18.9375 C9.25,20.2395898 9.70572461,21.3463496 10.6171875,22.2578125 C11.5286504,23.1692754 12.6354102,23.625 13.9375,23.625 C15.2395898,23.625 16.3463496,23.1692754 17.2578125,22.2578125 C18.1953172,21.3203078 18.6640625,20.213548 18.6640625,18.9375 C18.6640625,17.661452 18.1953172,16.5546922 17.2578125,15.6171875 Z" id="ion-ios-search-strong---Ionicons"></path>
                </g>
            </g>
        </g>
    </g>
</svg>