<?xml version="1.0" encoding="UTF-8"?>
<svg width="18px" height="19px" viewBox="0 0 18 19" version="1.1" xmlns="http://www.w3.org/2000/svg" xmlns:xlink="http://www.w3.org/1999/xlink">
    <!-- Generator: Sketch 52.3 (67297) - http://www.bohemiancoding.com/sketch -->
    <title>People - simple-line-icons</title>
    <desc>Created with Sketch.</desc>
    <g id="Academy-A/I-Portal" stroke="none" stroke-width="1" fill="none" fill-rule="evenodd">
        <g id="Courses:-Details-Dropdowns" transform="translate(-250.000000, -137.000000)" fill="#6A6665">
            <g id="Search-Dropdown" transform="translate(220.000000, 61.000000)">
                <g id="Menu-Item" transform="translate(0.000000, 70.000000)">
                    <g id="People---simple-line-icons---group" transform="translate(30.000000, 6.000000)">
                        <path d="M13.1132812,14.6953125 L9.58007812,12.7441406 C10.2363314,12.2167942 10.6787098,11.5253949 10.9072266,10.6699219 C11.1357433,9.81444885 11.25,9.09961225 11.25,8.52539062 L11.25,6.15234375 C11.25,5.75390426 11.129884,5.3584004 10.8896484,4.96582031 C10.6494129,4.57324022 10.3330098,4.21875158 9.94042969,3.90234375 C9.5478496,3.58593592 9.09961189,3.328126 8.59570312,3.12890625 C8.09179436,2.9296865 7.57617451,2.83007812 7.04882812,2.83007812 C6.53320055,2.83007812 6.02051036,2.9296865 5.51074219,3.12890625 C5.00097401,3.328126 4.54687699,3.58593592 4.1484375,3.90234375 C3.74999801,4.21875158 3.42773561,4.57324022 3.18164062,4.96582031 C2.93554564,5.3584004 2.8125,5.75390426 2.8125,6.15234375 L2.8125,8.52539062 C2.8125,9.0410182 2.94140496,9.73827686 3.19921875,10.6171875 C3.45703254,11.4960981 3.91991854,12.1992161 4.58789062,12.7265625 L0.94921875,14.6953125 C0.94921875,14.6953125 0.791017207,14.7890616 0.474609375,14.9765625 C0.158201543,15.1640634 0,15.3867175 0,15.6445312 L0,17.0683594 C0,17.337892 0.0937490625,17.5634757 0.28125,17.7451172 C0.468750938,17.9267587 0.691404961,18.0175781 0.94921875,18.0175781 L13.1132812,18.0175781 C13.371095,18.0175781 13.5937491,17.9267587 13.78125,17.7451172 C13.9687509,17.5634757 14.0625,17.337892 14.0625,17.0683594 L14.0625,15.6445312 C14.0625,15.3632798 13.9042985,15.1347665 13.5878906,14.9589844 C13.2714828,14.7832022 13.1132812,14.6953125 13.1132812,14.6953125 Z M12.9375,16.8925781 L1.125,16.8925781 L1.125,15.890625 C1.16015643,15.8671874 1.2041013,15.8378908 1.25683594,15.8027344 C1.30957058,15.7675779 1.35937477,15.7441407 1.40625,15.7324219 C1.41796881,15.7207031 1.42968744,15.7119141 1.44140625,15.7060547 C1.45312506,15.7001953 1.46484369,15.6972656 1.4765625,15.6972656 L5.11523438,13.7109375 C5.2792977,13.6289058 5.41406197,13.5087899 5.51953125,13.3505859 C5.62500053,13.192382 5.68359369,13.0195322 5.6953125,12.8320312 C5.71875012,12.6445303 5.69238319,12.4628915 5.61621094,12.2871094 C5.54003868,12.1113272 5.43164133,11.9648443 5.29101562,11.8476562 C4.81054447,11.4726544 4.4648448,10.9365269 4.25390625,10.2392578 C4.0429677,9.5419887 3.9375,8.97070535 3.9375,8.52539062 L3.9375,6.15234375 C3.9375,5.74218545 4.25683274,5.27344014 4.89550781,4.74609375 C5.53418288,4.21874736 6.25194914,3.95507812 7.04882812,3.95507812 C7.86914473,3.95507812 8.58691099,4.21874736 9.20214844,4.74609375 C9.81738589,5.27344014 10.125,5.74218545 10.125,6.15234375 L10.125,8.52539062 C10.125,8.97070535 10.0371103,9.5419887 9.86132812,10.2392578 C9.685546,10.9365269 9.35742428,11.4726544 8.87695312,11.8476562 C8.72460861,11.9648443 8.61035194,12.1113272 8.53417969,12.2871094 C8.45800743,12.4628915 8.43164051,12.6445303 8.45507812,12.8320312 C8.46679693,13.0195322 8.5253901,13.192382 8.63085938,13.3505859 C8.73632865,13.5087899 8.87109293,13.6347652 9.03515625,13.7285156 L12.5683594,15.6796875 C12.591797,15.6914063 12.6123046,15.7031249 12.6298828,15.7148438 C12.647461,15.7265626 12.6621093,15.7324219 12.6738281,15.7324219 L12.8144531,15.8027344 C12.8613284,15.826172 12.9023436,15.8554686 12.9375,15.890625 L12.9375,16.8925781 Z M17.0507812,11.9003906 L13.4648438,9.93164062 C14.121097,9.41601305 14.5722644,8.72754337 14.8183594,7.86621094 C15.0644544,7.00487851 15.1875,6.29297156 15.1875,5.73046875 L15.1875,3.35742188 C15.1875,2.95898238 15.0644544,2.56054887 14.8183594,2.16210938 C14.5722644,1.76366988 14.250002,1.40625158 13.8515625,1.08984375 C13.453123,0.773435918 12.999026,0.512696338 12.4892578,0.307617188 C11.9794896,0.102538037 11.4609401,0 10.9335938,0 C10.2539029,0 9.5918001,0.164060859 8.94726562,0.4921875 C8.30273115,0.820314141 7.77539268,1.22460697 7.36523438,1.70507812 C7.59961055,1.71679693 7.83984252,1.72851557 8.0859375,1.74023438 C8.33203248,1.75195318 8.56640514,1.7929684 8.7890625,1.86328125 C9.08203271,1.64062389 9.41308409,1.46484439 9.78222656,1.3359375 C10.151369,1.20703061 10.5351543,1.14257812 10.9335938,1.14257812 C11.7539104,1.14257812 12.4804656,1.40624736 13.1132812,1.93359375 C13.7460969,2.46094014 14.0625,2.93554477 14.0625,3.35742188 L14.0625,5.73046875 C14.0625,6.16406467 13.9658213,6.7294887 13.7724609,7.42675781 C13.5791006,8.12402692 13.2421899,8.66601369 12.7617188,9.05273438 C12.6093742,9.16992246 12.4951176,9.31640537 12.4189453,9.4921875 C12.3427731,9.66796963 12.3164061,9.84960844 12.3398438,10.0371094 C12.3515626,10.2246103 12.4101557,10.3974601 12.515625,10.5556641 C12.6210943,10.713868 12.7558586,10.8398433 12.9199219,10.9335938 L16.5058594,12.8847656 C16.529297,12.8964844 16.5498046,12.9052734 16.5673828,12.9111328 C16.584961,12.9169922 16.5996093,12.9257812 16.6113281,12.9375 C16.6582034,12.9492188 16.7050779,12.9697264 16.7519531,12.9990234 C16.7988284,13.0283205 16.8398436,13.0546874 16.875,13.078125 L16.875,14.0800781 L14.6074219,14.0800781 C14.7714852,14.208985 14.8916012,14.3671866 14.9677734,14.5546875 C15.0439457,14.7421884 15.1171871,14.9589831 15.1875,15.2050781 L17.0507812,15.2050781 C17.308595,15.2050781 17.5312491,15.1142587 17.71875,14.9326172 C17.9062509,14.7509757 18,14.525392 18,14.2558594 L18,12.8496094 C18,12.568358 17.8417985,12.3398446 17.5253906,12.1640625 C17.2089828,11.9882804 17.0507812,11.9003906 17.0507812,11.9003906 Z" id="People---simple-line-icons"></path>
                    </g>
                </g>
            </g>
        </g>
    </g>
</svg>