<?xml version="1.0" encoding="UTF-8"?>
<svg xmlns="http://www.w3.org/2000/svg" 
xmlns:xlink="http://www.w3.org/1999/xlink" width="24pt" height="24pt" viewBox="0 0 24 24" version="1.1">
<g id="surface14434449">
<path style=" stroke:none;fill-rule:nonzero;fill:rgb(58.823532%,56.470591%,54.11765%);fill-opacity:1;" d="M 12 1.441406 C 8.8125 1.441406 6.238281 4.015625 6.238281 7.199219 L 6.238281 9.601562 L 4.320312 9.601562 C 3.53125 9.601562 2.878906 10.25 2.878906 11.039062 L 2.878906 22.558594 C 2.878906 23.347656 3.53125 24 4.320312 24 L 19.679688 24 C 20.46875 24 21.121094 23.347656 21.121094 22.558594 L 21.121094 11.039062 C 21.121094 10.25 20.46875 9.601562 19.679688 9.601562 L 17.761719 9.601562 L 17.761719 7.199219 C 17.761719 4.015625 15.1875 1.441406 12 1.441406 Z M 12 2.398438 C 14.671875 2.398438 16.800781 4.527344 16.800781 7.199219 L 16.800781 9.601562 L 7.199219 9.601562 L 7.199219 7.199219 C 7.199219 4.527344 9.328125 2.398438 12 2.398438 Z M 4.320312 10.558594 L 19.679688 10.558594 C 19.945312 10.558594 20.160156 10.773438 20.160156 11.039062 L 20.160156 22.558594 C 20.160156 22.828125 19.945312 23.039062 19.679688 23.039062 L 4.320312 23.039062 C 4.054688 23.039062 3.839844 22.828125 3.839844 22.558594 L 3.839844 11.039062 C 3.839844 10.773438 4.054688 10.558594 4.320312 10.558594 Z M 12 14.398438 C 11.183594 14.398438 10.558594 15.023438 10.558594 15.839844 C 10.558594 16.269531 10.75 16.648438 11.039062 16.890625 L 11.039062 18.238281 C 11.039062 18.769531 11.472656 19.199219 12 19.199219 C 12.527344 19.199219 12.960938 18.769531 12.960938 18.238281 L 12.960938 16.890625 C 13.25 16.648438 13.441406 16.269531 13.441406 15.839844 C 13.441406 15.023438 12.816406 14.398438 12 14.398438 Z M 12 14.398438 "/>
</g>
</svg>
